HIERARCHY
ROOT Hips
{
  OFFSET -300.059 95.9223 107.553
  CHANNELS 6 Xposition Yposition Zposition Zrotation Xrotation Yrotation
  JOINT ToSpine
  {
    OFFSET -0.0105055 1.38907 -7.13956
    CHANNELS 3 Zrotation Xrotation Yrotation
    JOINT Spine
    {
      OFFSET 0.0105055 10 1
      CHANNELS 3 Zrotation Xrotation Yrotation
      JOINT Spine1
      {
        OFFSET 0 12 1.60637
        CHANNELS 3 Zrotation Xrotation Yrotation
        JOINT Neck
        {
          OFFSET 0 27 2.26658
          CHANNELS 3 Zrotation Xrotation Yrotation
          JOINT Head
          {
            OFFSET 0 9 2.12705
            CHANNELS 3 Zrotation Xrotation Yrotation
            End Site
            {
              OFFSET 0 11 2
            }
          }
        }
        JOINT LeftShoulder
        {
          OFFSET 8 19.6109 2.86452
          CHANNELS 3 Zrotation Xrotation Yrotation
          JOINT LeftArm
          {
            OFFSET 12 1 0.681055
            CHANNELS 3 Zrotation Xrotation Yrotation
            JOINT LeftForeArm
            {
              OFFSET 19 0 -1.52608
              CHANNELS 3 Zrotation Xrotation Yrotation
              JOINT LeftHand
              {
                OFFSET 23 0 0
                CHANNELS 3 Zrotation Xrotation Yrotation
                End Site
                {
                  OFFSET 10 0 0
                }
              }
            }
          }
        }
        JOINT RightShoulder
        {
          OFFSET -8 19.6109 2.86452
          CHANNELS 3 Zrotation Xrotation Yrotation
          JOINT RightArm
          {
            OFFSET -12 1 0.681055
            CHANNELS 3 Zrotation Xrotation Yrotation
            JOINT RightForeArm
            {
              OFFSET -19 0 -1.52608
              CHANNELS 3 Zrotation Xrotation Yrotation
              JOINT RightHand
              {
                OFFSET -23 0 0
                CHANNELS 3 Zrotation Xrotation Yrotation
                End Site
                {
                  OFFSET -10 0 0
                }
              }
            }
          }
        }
      }
    }
  }
  JOINT LeftUpLeg
  {
    OFFSET 9 -7.17245 0
    CHANNELS 3 Zrotation Xrotation Yrotation
    JOINT LeftLeg
    {
      OFFSET 0 -44.1113 0
      CHANNELS 3 Zrotation Xrotation Yrotation
      JOINT LeftFoot
      {
        OFFSET 0 -36.1829 0
        CHANNELS 3 Zrotation Xrotation Yrotation
        JOINT LeftToeBase
        {
          OFFSET 0 -4.84184 13
          CHANNELS 3 Zrotation Xrotation Yrotation
          End Site
          {
            OFFSET 0 1 6
          }
        }
      }
    }
  }
  JOINT RightUpLeg
  {
    OFFSET -9 -7.17245 0
    CHANNELS 3 Zrotation Xrotation Yrotation
    JOINT RightLeg
    {
      OFFSET 0 -44.0551 0
      CHANNELS 3 Zrotation Xrotation Yrotation
      JOINT RightFoot
      {
        OFFSET 0 -36.1469 0
        CHANNELS 3 Zrotation Xrotation Yrotation
        JOINT RightToeBase
        {
          OFFSET 0 -4.92256 13
          CHANNELS 3 Zrotation Xrotation Yrotation
          End Site
          {
            OFFSET 0 1 6
          }
        }
      }
    }
  }
}
MOTION
Frames:	10
Frame Time:	0.0333333
-9.86621 83.5685 54.0864 -23.3883 2.19191 -171.867 0 0 0 4.55527 28.4181 3.95106 3.05738 5.88019 5.53894 -1.29872 -3.76434 7.9382 -9.01347 5.64668 9.72044 -21.6101 3.86134 -10.2439 -60.6761 44.6372 21.9637 -10.0504 -17.298 -30.7975 4.28307 0.170372 4.52933 19.2007 5.12376 16.2039 25.5472 15.9986 -8.69002 12.8951 -32.4893 3.51242 -6.86774 -0.0544595 0.909588 -2.15631 6.26405 14.8572 0.0262036 59.9632 -0.554552 12.635 -31.2715 3.55152 -3.82381 -22.9423 3.02468 -28.1213 -37.7803 -81.5903 1.08739 29.8379 -32.9932 4.64042 -55.0115 2.42512 -3.35788 36.1624 10.5833 
-9.17052 85.0721 55.3631 -25.4245 3.25601 -165.566 0 0 0 2.38403 28.1829 5.50774 1.54975 7.42194 6.99799 -2.3983 -1.02311 9.645 -8.54558 4.31557 10.8929 -23.4705 4.14553 -10.3684 -65.3067 44.0985 28.2101 -9.04998 -14.9802 -31.6414 4.3929 0.186789 4.87046 17.9449 4.82076 15.9434 27.1047 17.0707 -9.58192 13.0925 -32.609 3.04897 -6.60267 -0.0537211 0.928588 0.32313 7.25538 13.762 0.045004 56.9088 -10.8088 11.5108 -25.6714 2.64974 -3.45318 -23.7913 1.07106 -28.9421 -34.8523 -64.7551 7.2585 24.1661 -46.9554 10.5631 -54.57 5.45801 -6.16061 48.1829 14.4137 
-8.576 86.5096 56.7405 -26.3229 3.60693 -158.981 0 0 0 3.06086 27.1902 6.27723 -0.793125 9.25241 8.59324 -1.90074 1.12687 10.871 -8.16537 2.23134 12.0524 -23.0392 4.07953 -10.3328 -69.9844 43.4872 32.5078 -7.9159 -13.3624 -31.0327 4.10787 0.165205 4.57899 18.6005 4.79906 15.4068 27.7113 16.0769 -11.4485 12.6678 -31.8968 3.20907 -6.63169 -0.0630376 1.07824 3.60905 8.11376 12.7095 0.068565 52.0866 -20.8861 10.406 -20.4116 1.8684 -3.27368 -26.5514 -1.42077 -31.7647 -29.7991 -48.2817 11.1605 20.3055 -61.3794 15.1623 -50.0178 6.67291 0.628754 55.632 5.15594 
-7.97502 88.4183 57.8742 -26.4211 2.67683 -151.436 0 0 0 4.5401 25.7372 6.52205 -2.00782 9.20663 9.36678 -2.2689 4.44694 12.0163 -8.14446 -0.128941 12.9586 -22.7554 3.92934 -9.96038 -74.2782 42.4665 37.1534 -7.82348 -13.527 -30.431 3.32662 0.124677 4.31223 19.3601 4.8657 15.141 28.77 14.4988 -14.7583 12.0285 -29.4348 3.93862 -6.63826 -0.0865258 1.50052 6.09721 7.38543 11.8175 -0.0211787 46.8455 -28.6795 11.3884 -14.1284 1.41211 -3.61278 -28.7865 -1.69737 -36.9942 -27.142 -55.113 8.66999 25.4144 -49.5686 1.04665 -30.2991 1.49642 0.566322 30.0142 2.1011 
-7.23781 90.2751 58.598 -25.9349 1.51614 -143.237 0 0 0 6.31954 24.4828 6.65282 -2.29069 7.91641 9.74888 -4.62264 7.54805 13.5218 -7.51649 -1.72095 13.4702 -23.0354 3.92388 -9.81909 -77.0482 41.0303 41.2812 -7.54966 -13.3534 -29.8493 3.10911 0.11859 4.36948 19.2749 4.83338 15.0763 30.6697 13.2543 -18.8358 11.5707 -26.2257 5.2912 -5.81933 -0.0660398 1.28087 7.97698 6.07913 10.449 0.00113813 42.0452 -33.4537 12.9536 -10.8722 1.24079 -3.33151 -26.8124 -1.42276 -43.0714 -22.4059 -71.9193 4.35145 35.3233 -16.3416 -13.7588 -11.2208 -1.70656 -1.60086 1.23212 5.24915 
-6.36773 91.6245 59.0982 -24.4805 0.530174 -135.481 0 0 0 9.51587 22.4675 6.79226 -3.84958 7.47226 10.6384 -6.33581 9.27811 15.257 -6.97291 -2.6697 14.4172 -22.1943 3.67012 -9.30862 -78.0765 39.7846 42.848 -6.68859 -12.3282 -28.7779 3.42321 0.130327 4.3568 19.7212 4.83396 14.787 32.0747 13.7787 -21.6676 11.6578 -23.8304 5.84493 -5.5308 -0.0792395 1.62839 9.63721 4.17928 7.13378 0.00106667 37.3482 -35.7454 14.8877 -9.34573 1.22338 -3.16294 -24.716 -0.610543 -46.4672 -18.3402 -76.6288 -1.34382 47.4919 1.94484 -12.101 -10.3652 -1.09857 -1.73466 2.47422 5.2741 
-5.13438 92.7668 59.3738 -22.2442 0.278156 -128.98 0 0 0 12.7513 20.3669 7.38232 -5.1769 7.37005 11.8122 -8.94761 9.3885 17.0129 -5.46367 -2.91415 14.9301 -21.3034 3.34732 -8.53864 -77.6452 37.722 42.89 -6.58803 -12.3934 -28.2854 3.48233 0.125553 4.13128 19.5222 4.93921 15.3203 33.0519 15.6734 -22.7643 11.977 -20.9508 4.58884 -5.23299 -0.0886005 1.91471 11.0061 1.77382 1.55011 -0.0346015 33.4481 -34.5307 16.6472 -7.90862 1.15882 -3.1609 -22.6379 0.597925 -45.6284 -17.0941 -70.9838 -0.262502 60.8265 -2.44182 -3.9472 -12.7006 -0.421979 -1.16994 2.40578 3.75449 
-3.27966 93.7858 59.3059 -20.4215 1.05962 -123.228 0 0 0 15.1714 19.3092 8.1293 -5.81977 7.26588 12.9143 -10.802 8.84051 18.451 -4.23876 -3.00152 15.4656 -20.3905 3.07723 -7.92704 -77.9278 36.4011 42.2415 -7.22512 -13.7007 -28.1581 3.91802 0.143516 4.17186 18.7909 5.09351 16.3948 33.3996 17.9255 -22.0101 12.4419 -15.7788 2.80134 -4.8382 -0.0821119 1.94948 12.734 -0.54981 -4.00868 -0.00419394 30.5664 -32.3787 17.4812 -6.11792 0.943942 -3.04329 -20.732 1.16471 -40.6233 -15.791 -62.6661 0.347813 72.701 -0.590032 0.824241 -12.7096 0.0844362 -0.956813 0.325588 2.75977 
-1.01556 94.4005 58.5728 -19.8604 2.00622 -116.64 0 0 0 15.9165 18.7284 8.57038 -5.38081 7.4598 13.2703 -10.7146 8.80499 19.2199 -4.58951 -3.02351 16.3527 -19.8753 2.87351 -7.36656 -79.6032 37.6718 41.4699 -7.66511 -14.9601 -27.5354 4.01298 0.144626 4.11484 18.4085 5.23761 17.2386 32.5657 19.8613 -20.2688 12.8906 -10.5757 2.59259 -4.4521 -0.0661749 1.66424 14.6663 -2.80728 -8.80398 0.0209641 28.0575 -33.6008 17.9805 -2.45078 0.375869 -3.2952 -20.1552 2.33002 -32.9431 -13.3387 -52.68 0.979955 82.0499 8.11268 -0.881884 -11.3229 -0.0893226 -1.53981 -1.73958 4.12408 
1.32077 94.563 57.3798 -20.5973 2.06273 -109.264 0 0 0 14.711 18.3426 9.0042 -4.78056 8.06326 13.2622 -8.94292 8.29448 18.9192 -5.22797 -2.68017 16.8418 -19.5492 2.88378 -7.5347 -80.8055 39.4264 40.7762 -6.75175 -13.3473 -27.1501 3.55125 0.0976018 3.15265 17.8678 5.23789 17.6517 32.0511 20.7422 -18.5755 12.7902 -7.685 3.94216 -4.48789 -0.0770731 1.89891 15.3352 -5.60253 -12.2745 -0.010837 26.5955 -37.3958 17.3478 3.0794 -0.453081 -3.8491 -21.4871 3.74881 -24.1562 -9.30386 -42.302 -1.14443 86.499 21.479 -3.59429 -8.53925 -0.251561 -1.75383 -2.85229 4.58988 
